<svg id="logo-44" width="172" height="40" viewBox="0 0 172 40" fill="none" xmlns="http://www.w3.org/2000/svg"> <path d="M49.0364 29H60.3891V25.7673H52.4982V10.6727H49.0364V29Z" fill="#23216E" class="ccompli2"></path> <path d="M67.2113 29.3818C68.5859 29.3818 69.795 29.0763 70.8386 28.4654C71.8907 27.846 72.7095 26.9933 73.295 25.9073C73.8889 24.8127 74.1859 23.5527 74.1859 22.1273C74.1859 20.7103 73.8931 19.4588 73.3077 18.3727C72.7222 17.2782 71.9034 16.4212 70.8513 15.8018C69.8077 15.1824 68.5944 14.8727 67.2113 14.8727C65.8537 14.8727 64.6531 15.1782 63.6095 15.7891C62.5659 16.4 61.7471 17.2527 61.1531 18.3473C60.5592 19.4333 60.2622 20.6933 60.2622 22.1273C60.2622 23.5442 60.5507 24.8 61.1277 25.8945C61.7131 26.9806 62.5277 27.8333 63.5713 28.4527C64.615 29.0721 65.8283 29.3818 67.2113 29.3818ZM67.2113 26.1491C66.1337 26.1491 65.315 25.7885 64.755 25.0673C64.2034 24.3376 63.9277 23.3576 63.9277 22.1273C63.9277 20.9309 64.1907 19.9636 64.7168 19.2254C65.2513 18.4788 66.0828 18.1054 67.2113 18.1054C68.3059 18.1054 69.1289 18.4703 69.6804 19.2C70.2404 19.9297 70.5204 20.9054 70.5204 22.1273C70.5204 23.3067 70.2447 24.2739 69.6931 25.0291C69.1501 25.7757 68.3228 26.1491 67.2113 26.1491Z" fill="#23216E" class="ccompli2"></path> <path d="M81.0319 29.3818C81.6768 29.3818 82.2707 29.3054 82.8138 29.1527C83.3653 29 83.8659 28.7836 84.3156 28.5036V29.8909C84.3326 30.4 84.201 30.8242 83.921 31.1636C83.6495 31.5115 83.2847 31.7703 82.8265 31.94C82.3683 32.1182 81.8804 32.2073 81.3629 32.2073C80.8792 32.2073 80.4295 32.1012 80.0138 31.8891C79.6065 31.677 79.2925 31.3673 79.0719 30.96L75.8647 32.5127C76.3907 33.4036 77.1416 34.1206 78.1174 34.6636C79.0932 35.2151 80.1665 35.4909 81.3374 35.4909C82.3471 35.4909 83.2847 35.3551 84.1501 35.0836C85.0156 34.8206 85.7453 34.4176 86.3392 33.8745C86.9416 33.3315 87.3532 32.64 87.5738 31.8C87.6501 31.503 87.701 31.2018 87.7265 30.8963C87.7604 30.5994 87.7774 30.2812 87.7774 29.9418V15.2545H84.7483V16.0182C84.2816 15.6533 83.7513 15.3733 83.1574 15.1782C82.5719 14.9745 81.9229 14.8727 81.2101 14.8727C79.895 14.8727 78.7495 15.1867 77.7738 15.8145C76.798 16.4424 76.0386 17.3036 75.4956 18.3982C74.961 19.4842 74.6938 20.7273 74.6938 22.1273C74.6938 23.5018 74.9568 24.7363 75.4829 25.8309C76.0174 26.9254 76.7598 27.7909 77.7101 28.4273C78.6604 29.0636 79.7677 29.3818 81.0319 29.3818ZM81.5919 26.3018C80.8453 26.3018 80.2344 26.1151 79.7592 25.7418C79.2841 25.3685 78.9319 24.8679 78.7029 24.24C78.4738 23.6036 78.3592 22.8994 78.3592 22.1273C78.3592 21.3636 78.478 20.6679 78.7156 20.04C78.9532 19.4036 79.318 18.8988 79.8101 18.5254C80.3107 18.1436 80.9471 17.9527 81.7192 17.9527C82.8053 17.9527 83.5816 18.3388 84.0483 19.1109C84.515 19.8745 84.7483 20.88 84.7483 22.1273C84.7483 23.3745 84.5107 24.3842 84.0356 25.1563C83.5689 25.92 82.7544 26.3018 81.5919 26.3018Z" fill="#23216E" class="ccompli2"></path> <path d="M95.9998 29.3818C97.3744 29.3818 98.5835 29.0763 99.6271 28.4654C100.679 27.846 101.498 26.9933 102.083 25.9073C102.677 24.8127 102.974 23.5527 102.974 22.1273C102.974 20.7103 102.682 19.4588 102.096 18.3727C101.511 17.2782 100.692 16.4212 99.6398 15.8018C98.5962 15.1824 97.3828 14.8727 95.9998 14.8727C94.6422 14.8727 93.4416 15.1782 92.398 15.7891C91.3544 16.4 90.5356 17.2527 89.9416 18.3473C89.3477 19.4333 89.0507 20.6933 89.0507 22.1273C89.0507 23.5442 89.3392 24.8 89.9162 25.8945C90.5016 26.9806 91.3162 27.8333 92.3598 28.4527C93.4035 29.0721 94.6168 29.3818 95.9998 29.3818ZM95.9998 26.1491C94.9222 26.1491 94.1034 25.7885 93.5434 25.0673C92.9919 24.3376 92.7162 23.3576 92.7162 22.1273C92.7162 20.9309 92.9792 19.9636 93.5053 19.2254C94.0398 18.4788 94.8713 18.1054 95.9998 18.1054C97.0944 18.1054 97.9174 18.4703 98.4689 19.2C99.0289 19.9297 99.3089 20.9054 99.3089 22.1273C99.3089 23.3067 99.0331 24.2739 98.4816 25.0291C97.9386 25.7757 97.1113 26.1491 95.9998 26.1491Z" fill="#23216E" class="ccompli2"></path> <path d="M104.5 13.3454H107.962V10.2909H104.5V13.3454ZM104.5 29H107.962V15.2545H104.5V29Z" fill="#23216E" class="ccompli2"></path> <path d="M110.225 35.1091H113.712V28.5036C114.162 28.7836 114.658 29 115.201 29.1527C115.753 29.3054 116.351 29.3818 116.996 29.3818C118.26 29.3818 119.368 29.0636 120.318 28.4273C121.268 27.7909 122.006 26.9254 122.532 25.8309C123.067 24.7363 123.334 23.5018 123.334 22.1273C123.334 20.7273 123.063 19.4842 122.52 18.3982C121.985 17.3036 121.23 16.4424 120.254 15.8145C119.278 15.1867 118.133 14.8727 116.818 14.8727C116.105 14.8727 115.452 14.9745 114.858 15.1782C114.272 15.3733 113.746 15.6533 113.28 16.0182V15.2545H110.225V35.1091ZM116.436 26.3018C115.282 26.3018 114.468 25.92 113.992 25.1563C113.517 24.3842 113.28 23.3745 113.28 22.1273C113.28 20.88 113.513 19.8745 113.98 19.1109C114.455 18.3388 115.231 17.9527 116.309 17.9527C117.081 17.9527 117.713 18.1436 118.205 18.5254C118.706 18.8988 119.075 19.4036 119.312 20.04C119.55 20.6679 119.669 21.3636 119.669 22.1273C119.669 22.8994 119.554 23.6036 119.325 24.24C119.096 24.8679 118.744 25.3685 118.269 25.7418C117.794 26.1151 117.183 26.3018 116.436 26.3018Z" fill="#23216E" class="ccompli2"></path> <path d="M129.606 29.3818C131.404 29.3818 132.813 28.9788 133.831 28.1727C134.849 27.3666 135.358 26.2594 135.358 24.8509C135.358 23.7818 135.027 22.9376 134.366 22.3182C133.712 21.6988 132.601 21.1854 131.031 20.7782C129.962 20.5066 129.164 20.286 128.638 20.1163C128.121 19.9467 127.777 19.7812 127.607 19.62C127.446 19.4588 127.366 19.2594 127.366 19.0218C127.366 18.623 127.556 18.3176 127.938 18.1054C128.329 17.8933 128.842 17.8085 129.478 17.8509C130.827 17.9527 131.566 18.5297 131.693 19.5818L135.231 18.9454C135.053 17.6982 134.442 16.7097 133.398 15.98C132.355 15.2418 131.023 14.8727 129.402 14.8727C127.739 14.8727 126.411 15.263 125.418 16.0436C124.426 16.8242 123.929 17.8763 123.929 19.2C123.929 20.2521 124.273 21.0836 124.96 21.6945C125.647 22.297 126.831 22.8145 128.511 23.2473C129.504 23.5103 130.233 23.7224 130.7 23.8836C131.175 24.0448 131.481 24.2103 131.616 24.38C131.752 24.5412 131.82 24.7576 131.82 25.0291C131.82 25.4618 131.65 25.8012 131.311 26.0473C130.972 26.2848 130.488 26.4036 129.86 26.4036C129.096 26.4036 128.464 26.2212 127.964 25.8563C127.472 25.4915 127.153 24.9867 127.009 24.3418L123.471 24.8763C123.7 26.3103 124.345 27.4218 125.406 28.2109C126.475 28.9915 127.875 29.3818 129.606 29.3818Z" fill="#23216E" class="ccompli2"></path> <path d="M141.744 29.4073C142.737 29.4073 143.602 29.2418 144.341 28.9109C145.079 28.58 145.698 28.1388 146.199 27.5873V29H149.253V15.2545H145.766V22.2291C145.766 23.0776 145.668 23.7648 145.473 24.2909C145.287 24.8085 145.045 25.203 144.748 25.4745C144.451 25.7376 144.133 25.9157 143.793 26.0091C143.454 26.1024 143.136 26.1491 142.839 26.1491C142.101 26.1491 141.528 25.9836 141.121 25.6527C140.722 25.3218 140.433 24.9103 140.255 24.4182C140.077 23.926 139.971 23.4382 139.937 22.9545C139.903 22.4624 139.886 22.0594 139.886 21.7454V15.2545H136.373V22.9673C136.373 23.1963 136.39 23.5612 136.424 24.0618C136.458 24.5624 136.556 25.1182 136.717 25.7291C136.878 26.3315 137.145 26.9127 137.519 27.4727C137.901 28.0327 138.431 28.4951 139.11 28.86C139.788 29.2248 140.667 29.4073 141.744 29.4073Z" fill="#23216E" class="ccompli2"></path> <path d="M151.258 29H154.745V20.6763C154.745 19.8873 154.961 19.2467 155.394 18.7545C155.835 18.2539 156.416 18.0036 157.138 18.0036C157.893 18.0036 158.483 18.2582 158.907 18.7673C159.339 19.2679 159.556 19.9721 159.556 20.88V29H163.018V20.6763C163.018 19.8873 163.234 19.2467 163.667 18.7545C164.108 18.2539 164.689 18.0036 165.41 18.0036C166.166 18.0036 166.755 18.2582 167.179 18.7673C167.612 19.2679 167.829 19.9721 167.829 20.88V29H171.29V19.9636C171.29 18.4618 170.887 17.2485 170.081 16.3236C169.284 15.3903 168.1 14.9236 166.53 14.9236C165.648 14.9236 164.838 15.1145 164.099 15.4963C163.361 15.8782 162.772 16.4 162.33 17.0618C161.974 16.417 161.465 15.8994 160.803 15.5091C160.141 15.1188 159.318 14.9236 158.334 14.9236C157.502 14.9236 156.739 15.0891 156.043 15.42C155.347 15.7424 154.77 16.1879 154.312 16.7563V15.2545H151.258V29Z" fill="#23216E" class="ccompli2"></path> <path d="M20 0C8.9543 0 0 8.9543 0 20C11.0457 20 20 11.0457 20 0Z" fill="#45D2B0" class="ccustom"></path> <path d="M20 40C31.0457 40 40 31.0457 40 20C28.9543 20 20 28.9543 20 40Z" fill="#45D2B0" class="ccustom"></path> <path d="M20 0C31.0457 0 40 8.9543 40 20C28.9543 20 20 11.0457 20 0Z" fill="#23216E" class="ccompli2"></path> <path d="M20 40C8.9543 40 -9.65645e-07 31.0457 0 20C11.0457 20 20 28.9543 20 40Z" fill="#23216E" class="ccompli2"></path> </svg>